<?xml version="1.0" encoding="utf-8"?>
<svg xmlns="http://www.w3.org/2000/svg" version="1.1" id="Layer_1" x="0px" y="0px" viewBox="0 -0.5 386 80" width="386" height="80">
  <path d="M111,27.7h8.1L108.9,61h-9l-5.7-22.3L88.4,61h-9L69.2,27.7h8.5L83.8,53l6.1-25.3h8.9l6,25.2L111,27.7z" style="fill: rgb(255, 255, 255);"/>
  <path d="M124.1,56.7c-3.2-3.2-4.9-7.3-4.9-12.4s1.6-9.2,4.9-12.4c3.3-3.1,7.4-4.7,12.2-4.7s8.9,1.6,12.2,4.7s4.9,7.2,4.9,12.4 c0,5.1-1.6,9.3-5,12.4c-3.3,3.2-7.4,4.7-12.3,4.7C131.4,61.5,127.4,59.9,124.1,56.7z M136.3,54.3c2.4,0,4.4-0.9,6.1-2.6 c1.7-1.7,2.5-4.2,2.5-7.4s-0.8-5.6-2.5-7.3s-3.7-2.6-6.1-2.6c-2.4,0-4.4,0.9-6,2.6c-1.6,1.7-2.5,4.2-2.5,7.4s0.8,5.7,2.5,7.4 S134,54.3,136.3,54.3z" style="fill: rgb(255, 255, 255);"/>
  <path d="M159.4,56.7c-3.2-3.2-4.9-7.3-4.9-12.4s1.6-9.2,4.9-12.4c3.3-3.1,7.4-4.7,12.2-4.7s8.9,1.6,12.2,4.7s4.9,7.2,4.9,12.4 c0,5.1-1.6,9.3-5,12.4c-3.3,3.2-7.4,4.7-12.3,4.7C166.7,61.5,162.7,59.9,159.4,56.7z M171.6,54.3c2.4,0,4.4-0.9,6.1-2.6 c1.7-1.7,2.5-4.2,2.5-7.4s-0.8-5.6-2.5-7.3s-3.7-2.6-6.1-2.6c-2.4,0-4.4,0.9-6,2.6s-2.5,4.2-2.5,7.4s0.8,5.7,2.5,7.4 C167.3,53.5,169.3,54.3,171.6,54.3z" style="fill: rgb(255, 255, 255);"/>
  <path d="M195.3,56.6c-3-3.2-4.5-7.3-4.5-12.3s1.5-9.1,4.4-12.3c3-3.2,6.7-4.8,11.3-4.8s8,1.9,10.4,5.6V16.6h8.4V61h-8.4v-5.6 c-2.5,4-6,6.1-10.5,6.1S198.3,59.9,195.3,56.6z M214.3,51.5c1.8-1.7,2.6-4.1,2.6-7.2c0-3-0.9-5.4-2.6-7.2c-1.8-1.7-3.8-2.6-6.2-2.6 s-4.4,0.9-6.2,2.6c-1.7,1.7-2.6,4.1-2.6,7.1s0.9,5.4,2.6,7.2c1.8,1.8,3.8,2.6,6.1,2.6C210.5,54.1,212.6,53.3,214.3,51.5z" style="fill: rgb(255, 255, 255);"/>
  <path d="M238.4,27.7v5c2.1-3.6,5.6-5.5,10.3-5.5c2.5,0,4.8,0.6,6.8,1.7c2,1.2,3.5,2.8,4.6,5c1.2-2.1,2.8-3.7,4.8-4.9 s4.3-1.8,6.8-1.8c4,0,7.2,1.2,9.6,3.7s3.6,6,3.6,10.4v19.6h-8.4V42.6c0-2.6-0.7-4.6-2-6s-3.1-2.1-5.4-2.1s-4.1,0.7-5.4,2.1 c-1.3,1.4-2,3.4-2,6V61h-8.4V42.6c0-2.6-0.7-4.6-2-6s-3.1-2.1-5.4-2.1c-2.3,0-4.1,0.7-5.4,2.1c-1.3,1.4-2,3.4-2,6V61H230V27.7H238.4 z" style="fill: rgb(255, 255, 255);"/>
  <path d="M293.3,56.6c-3-3.2-4.5-7.3-4.5-12.3s1.5-9.1,4.4-12.3c3-3.2,6.7-4.8,11.3-4.8c4.6,0,8,1.9,10.4,5.6v-5.2h8.4v33.2h-8.4 v-5.6c-2.5,4-6,6.1-10.5,6.1C300,61.5,296.3,59.9,293.3,56.6z M312.4,51.5c1.8-1.7,2.6-4.1,2.6-7.2c0-3-0.9-5.4-2.6-7.2 c-1.8-1.7-3.8-2.6-6.2-2.6c-2.4,0-4.4,0.9-6.2,2.6c-1.7,1.7-2.6,4.1-2.6,7.1s0.9,5.4,2.6,7.2c1.8,1.8,3.8,2.6,6.2,2.6 S310.6,53.3,312.4,51.5z" style="fill: rgb(255, 255, 255);"/>
  <path d="M337.5,27.7v5.9c2.2-4.2,5.5-6.4,9.7-6.4v8.6h-2.1c-2.5,0-4.4,0.6-5.7,1.9c-1.3,1.3-1.9,3.4-1.9,6.5v16.7H329V27.7H337.5z" style="fill: rgb(255, 255, 255);"/>
  <path d="M366.7,53.9h4V61h-5.3c-3.4,0-6-0.8-7.9-2.3c-1.8-1.6-2.8-4.1-2.8-7.7V34.6h-3.5v-6.9h3.5v-8.2h8.5v8.2h7.4v6.9h-7.4v16.3 c0,1.1,0.3,1.9,0.8,2.3C364.5,53.7,365.4,53.9,366.7,53.9z" style="fill: rgb(255, 255, 255);"/>
  <circle stroke-width="3" stroke-miterlimit="10" cx="40.1" cy="45.1" r="22.7" style="fill: rgba(255, 255, 255, 0); stroke: rgb(255, 255, 255);" transform="matrix(1.029261, 0, 0, 0.93782, -0.509147, 4.215824)"/>
  <polyline points="25.9,56.4 39.9,27.7 54.9,56.4 " style="fill: rgb(255, 255, 255);"/>
  <rect x="38.4" y="56.2" width="2.9" height="6.3" style="fill: rgb(255, 255, 255);"/>
  <g>
    <path fill="#FFFFFF" d="M384.3,56.2c0,1.4-0.5,2.5-1.4,3.4s-2.1,1.4-3.4,1.4s-2.5-0.5-3.4-1.4s-1.4-2.1-1.4-3.4 c0-1.4,0.5-2.5,1.4-3.4s2-1.4,3.4-1.4s2.5,0.5,3.4,1.4S384.3,54.8,384.3,56.2z"/>
  </g>
  <g id="l1">
    <path d="M5.3,20.2c5.1-5.7,10.1-20.6,20.8-17.9C36.7,5,45.2,14.8,49.3,21.9l-5.2,2.2L43,21.5L20.6,31l1.1,2.6 l-4.7,2c-2.6-9.6,0.2-14.1,0.3-14.2c0.1-0.1,0-0.2-0.2-0.2c-1.7,1-1.7,7-3.3,7.4s-3.7-2.2-4.1-3.2c-0.1-0.3-0.8-0.1-0.4,0.4 c1.9,2.2,3.8,8.6-3.6,12.6C6.1,33.4,0.3,25.8,5.3,20.2z" style="fill: rgb(249, 87, 56);"/>
    <path stroke="#F9F9F9" stroke-miterlimit="10" d="M16.2,33c0.5-2,3.3-8.2,13.4-12.6c10.2-4.3,16.6-1.9,18.4-0.9 s3.8,3,3,5.6c-0.8,2.5-3.9,2.5-5.9,1.8s-8.5-0.7-12.4,0.9s-8.4,6.3-9.3,8.3c-0.9,1.9-3,4.2-5.4,3C15.8,37.8,15.7,35,16.2,33z" style="fill: rgb(249, 87, 56);"/>
    <circle stroke="#F9F9F9" stroke-miterlimit="10" cx="8.1" cy="37" r="5.1" style="fill: rgb(249, 87, 56);"/>
  </g>
</svg>